<svg width="22" height="22" viewBox="0 0 22 22" fill="none" xmlns="http://www.w3.org/2000/svg">
<path d="M6.41667 0H3.66667C2.69421 0 1.76158 0.386308 1.07394 1.07394C0.386308 1.76158 0 2.69421 0 3.66667L0 6.41667C0 7.38913 0.386308 8.32176 1.07394 9.00939C1.76158 9.69702 2.69421 10.0833 3.66667 10.0833H6.41667C7.38913 10.0833 8.32176 9.69702 9.00939 9.00939C9.69702 8.32176 10.0833 7.38913 10.0833 6.41667V3.66667C10.0833 2.69421 9.69702 1.76158 9.00939 1.07394C8.32176 0.386308 7.38913 0 6.41667 0ZM8.25 6.41667C8.25 6.9029 8.05684 7.36921 7.71303 7.71303C7.36921 8.05684 6.9029 8.25 6.41667 8.25H3.66667C3.18044 8.25 2.71412 8.05684 2.3703 7.71303C2.02649 7.36921 1.83333 6.9029 1.83333 6.41667V3.66667C1.83333 3.18044 2.02649 2.71412 2.3703 2.3703C2.71412 2.02649 3.18044 1.83333 3.66667 1.83333H6.41667C6.9029 1.83333 7.36921 2.02649 7.71303 2.3703C8.05684 2.71412 8.25 3.18044 8.25 3.66667V6.41667Z" fill="#012935"/>
<path d="M18.3337 0H15.5837C14.6112 0 13.6786 0.386308 12.9909 1.07394C12.3033 1.76158 11.917 2.69421 11.917 3.66667V6.41667C11.917 7.38913 12.3033 8.32176 12.9909 9.00939C13.6786 9.69702 14.6112 10.0833 15.5837 10.0833H18.3337C19.3061 10.0833 20.2387 9.69702 20.9264 9.00939C21.614 8.32176 22.0003 7.38913 22.0003 6.41667V3.66667C22.0003 2.69421 21.614 1.76158 20.9264 1.07394C20.2387 0.386308 19.3061 0 18.3337 0ZM20.167 6.41667C20.167 6.9029 19.9738 7.36921 19.63 7.71303C19.2862 8.05684 18.8199 8.25 18.3337 8.25H15.5837C15.0974 8.25 14.6311 8.05684 14.2873 7.71303C13.9435 7.36921 13.7503 6.9029 13.7503 6.41667V3.66667C13.7503 3.18044 13.9435 2.71412 14.2873 2.3703C14.6311 2.02649 15.0974 1.83333 15.5837 1.83333H18.3337C18.8199 1.83333 19.2862 2.02649 19.63 2.3703C19.9738 2.71412 20.167 3.18044 20.167 3.66667V6.41667Z" fill="#012935"/>
<path d="M6.41667 11.9167H3.66667C2.69421 11.9167 1.76158 12.3031 1.07394 12.9907C0.386308 13.6783 0 14.611 0 15.5834L0 18.3334C0 19.3059 0.386308 20.2385 1.07394 20.9261C1.76158 21.6138 2.69421 22.0001 3.66667 22.0001H6.41667C7.38913 22.0001 8.32176 21.6138 9.00939 20.9261C9.69702 20.2385 10.0833 19.3059 10.0833 18.3334V15.5834C10.0833 14.611 9.69702 13.6783 9.00939 12.9907C8.32176 12.3031 7.38913 11.9167 6.41667 11.9167ZM8.25 18.3334C8.25 18.8196 8.05684 19.286 7.71303 19.6298C7.36921 19.9736 6.9029 20.1667 6.41667 20.1667H3.66667C3.18044 20.1667 2.71412 19.9736 2.3703 19.6298C2.02649 19.286 1.83333 18.8196 1.83333 18.3334V15.5834C1.83333 15.0972 2.02649 14.6309 2.3703 14.2871C2.71412 13.9432 3.18044 13.7501 3.66667 13.7501H6.41667C6.9029 13.7501 7.36921 13.9432 7.71303 14.2871C8.05684 14.6309 8.25 15.0972 8.25 15.5834V18.3334Z" fill="#012935"/>
<path d="M18.3337 11.9167H15.5837C14.6112 11.9167 13.6786 12.3031 12.9909 12.9907C12.3033 13.6783 11.917 14.611 11.917 15.5834V18.3334C11.917 19.3059 12.3033 20.2385 12.9909 20.9261C13.6786 21.6138 14.6112 22.0001 15.5837 22.0001H18.3337C19.3061 22.0001 20.2387 21.6138 20.9264 20.9261C21.614 20.2385 22.0003 19.3059 22.0003 18.3334V15.5834C22.0003 14.611 21.614 13.6783 20.9264 12.9907C20.2387 12.3031 19.3061 11.9167 18.3337 11.9167ZM20.167 18.3334C20.167 18.8196 19.9738 19.286 19.63 19.6298C19.2862 19.9736 18.8199 20.1667 18.3337 20.1667H15.5837C15.0974 20.1667 14.6311 19.9736 14.2873 19.6298C13.9435 19.286 13.7503 18.8196 13.7503 18.3334V15.5834C13.7503 15.0972 13.9435 14.6309 14.2873 14.2871C14.6311 13.9432 15.0974 13.7501 15.5837 13.7501H18.3337C18.8199 13.7501 19.2862 13.9432 19.63 14.2871C19.9738 14.6309 20.167 15.0972 20.167 15.5834V18.3334Z" fill="#012935"/>
</svg>
