<svg width="14" height="14" viewBox="0 0 14 14" fill="none" xmlns="http://www.w3.org/2000/svg">
<path d="M13.6215 5.98099C13.4856 5.82757 13.352 5.68174 13.2604 5.59016L11.9508 4.25841C11.841 4.15527 11.6956 4.0986 11.545 4.10025C11.3944 4.10191 11.2502 4.16177 11.1427 4.2673C11.0352 4.37282 10.9728 4.51584 10.9683 4.66641C10.9639 4.81697 11.0179 4.96341 11.119 5.07507L12.4321 6.41091L12.4367 6.41674H7.5834V1.60132L8.88598 2.88116C8.99764 2.98226 9.14409 3.03625 9.29465 3.03182C9.44522 3.02739 9.58823 2.96489 9.69376 2.8574C9.79929 2.74992 9.85915 2.60577 9.8608 2.45515C9.86246 2.30453 9.80579 2.15911 9.70265 2.04932L8.37323 0.742657C8.27815 0.647574 8.13232 0.514574 7.98007 0.379241C7.71345 0.143886 7.37197 0.0107671 7.0164 0.00357387C7.01102 0.00212938 7.00557 0.000961185 7.00007 7.38664e-05H6.99365C6.62105 -0.00361314 6.26029 0.130841 5.98098 0.377491C5.82757 0.513407 5.68173 0.646991 5.59015 0.738574L4.2584 2.04932C4.20014 2.10207 4.15315 2.16604 4.12023 2.23741C4.08731 2.30877 4.06915 2.38604 4.06684 2.4646C4.06453 2.54315 4.07812 2.62136 4.10679 2.69454C4.13545 2.76771 4.17861 2.83433 4.23367 2.89041C4.28872 2.94649 4.35454 2.99087 4.42718 3.02088C4.49981 3.05088 4.57776 3.06591 4.65634 3.06504C4.73492 3.06418 4.81252 3.04744 4.88447 3.01585C4.95643 2.98425 5.02126 2.93843 5.07507 2.88116L6.4109 1.56807L6.41673 1.56341V6.41674H1.5634L1.57215 6.40799L2.88115 5.07507C2.93843 5.02126 2.98424 4.95644 3.01584 4.88448C3.04744 4.81253 3.06417 4.73493 3.06504 4.65635C3.0659 4.57776 3.05088 4.49982 3.02087 4.42718C2.99086 4.35455 2.94648 4.28873 2.8904 4.23367C2.83433 4.17862 2.7677 4.13546 2.69453 4.10679C2.62136 4.07813 2.54314 4.06454 2.46459 4.06685C2.38604 4.06916 2.30876 4.08732 2.2374 4.12024C2.16604 4.15315 2.10206 4.20015 2.04932 4.25841L0.743234 5.58666C0.64815 5.68174 0.514567 5.82757 0.379234 5.98041C0.13167 6.25951 -0.00344972 6.6206 6.69571e-05 6.99366V7.00007C6.69571e-05 7.00591 0.00298362 7.01116 0.00356696 7.01699C0.0105217 7.37278 0.143663 7.71452 0.379234 7.98124C0.51515 8.13407 0.64815 8.27991 0.739734 8.37208L2.04932 9.70441C2.1591 9.80755 2.30452 9.86422 2.45514 9.86256C2.60577 9.8609 2.74991 9.80105 2.8574 9.69552C2.96488 9.58999 3.02738 9.44698 3.03181 9.29641C3.03624 9.14584 2.98225 8.9994 2.88115 8.88774L1.60073 7.58341H6.41673V12.4367L6.40798 12.4286L5.07507 11.1196C5.02147 11.0616 4.95665 11.015 4.88454 10.9828C4.81243 10.9506 4.73452 10.9334 4.65555 10.9321C4.57658 10.9309 4.49818 10.9458 4.42511 10.9758C4.35205 11.0057 4.28583 11.0503 4.23048 11.1066C4.17512 11.1629 4.13179 11.2299 4.1031 11.3035C4.07441 11.3771 4.06096 11.4558 4.06357 11.5347C4.06619 11.6136 4.0848 11.6912 4.11829 11.7627C4.15178 11.8343 4.19945 11.8983 4.2584 11.9508L5.58723 13.2569C5.68232 13.352 5.82815 13.485 5.98098 13.6209C6.25695 13.8653 6.6128 14.0002 6.9814 14.0002C7.35 14.0002 7.70585 13.8653 7.98182 13.6209C8.13465 13.485 8.2799 13.3526 8.37207 13.2598L9.7044 11.9508C9.76335 11.8983 9.81102 11.8343 9.84451 11.7627C9.878 11.6912 9.89662 11.6136 9.89923 11.5347C9.90184 11.4558 9.88839 11.3771 9.8597 11.3035C9.83101 11.2299 9.78768 11.1629 9.73232 11.1066C9.67697 11.0503 9.61075 11.0057 9.53769 10.9758C9.46462 10.9458 9.38622 10.9309 9.30725 10.9321C9.22828 10.9334 9.15037 10.9506 9.07826 10.9828C9.00615 11.015 8.94133 11.0616 8.88773 11.1196L7.5834 12.3994V7.58341H12.3994L11.1161 8.88599C11.0588 8.9398 11.013 9.00463 10.9814 9.07658C10.9498 9.14854 10.933 9.22614 10.9322 9.30472C10.9313 9.3833 10.9463 9.46125 10.9763 9.53388C11.0064 9.60651 11.0507 9.67233 11.1068 9.72739C11.1629 9.78245 11.2295 9.82561 11.3027 9.85427C11.3759 9.88294 11.4541 9.89653 11.5326 9.89422C11.6112 9.89191 11.6885 9.87375 11.7598 9.84083C11.8312 9.80791 11.8952 9.76091 11.9479 9.70266L13.254 8.37324C13.3491 8.27816 13.4821 8.13232 13.618 7.97949C13.8619 7.70399 13.9969 7.3489 13.9976 6.9809C13.9982 6.61291 13.8645 6.25734 13.6215 5.98099Z" fill="#012935"/>
</svg>
